<?xml version="1.0" encoding="UTF-8"?>
<svg width="457px" height="440px" viewBox="0 0 457 440" xmlns="http://www.w3.org/2000/svg" xmlns:xlink="http://www.w3.org/1999/xlink" version="1.1">
 <!-- Generated by Pixelmator Pro 2.1.5 -->
 <g id="group">
  <path id="Traçado" d="M287.079 91.628 L222.148 91.628 C212.675 91.628 205.097 84.049 205.097 74.577 L205.097 17.051 C205.097 7.578 212.675 0 222.148 0 L287.079 0 C296.552 0 304.13 7.578 304.13 17.051 L304.13 74.577 C304.13 83.877 296.38 91.628 287.079 91.628 Z" fill="#1a4f7f" fill-opacity="1" stroke="none"/>
  <path id="Traçado-1" d="M297.413 186.7 L252.289 186.7 C245.399 186.7 239.888 181.189 239.888 174.299 L239.888 134.341 C239.888 127.452 245.399 121.941 252.289 121.941 L297.413 121.941 C304.303 121.941 309.814 127.452 309.814 134.341 L309.814 174.299 C309.814 181.189 304.303 186.7 297.413 186.7 Z" fill="#1a4f7f" fill-opacity="1" stroke="none"/>
  <path id="Traçado-2" d="M254.7 136.58 L205.097 136.58 C198.208 136.58 192.696 131.069 192.696 124.18 L192.696 80.088 C192.696 73.199 198.208 67.687 205.097 67.687 L254.7 67.687 C261.589 67.687 267.101 73.199 267.101 80.088 L267.101 124.18 C266.928 131.069 261.417 136.58 254.7 136.58 Z" fill="#2fa8b0" fill-opacity="1" stroke="none"/>
  <path id="Traçado-3" d="M359.589 126.246 L326.004 126.246 C319.631 126.246 314.464 121.079 314.464 114.707 L314.464 85.255 C314.464 78.882 319.631 73.716 326.004 73.716 L359.589 73.716 C365.962 73.716 371.129 78.882 371.129 85.255 L371.129 114.879 C370.957 121.079 365.962 126.246 359.589 126.246 Z" fill="#1a4f7f" fill-opacity="1" stroke="none"/>
  <path id="Traçado-4" d="M194.246 176.711 L173.062 176.711 C168.239 176.711 164.278 172.749 164.278 167.927 L164.278 149.67 C164.278 144.848 168.239 140.886 173.062 140.886 L194.246 140.886 C199.069 140.886 203.03 144.848 203.03 149.67 L203.03 167.927 C203.03 172.749 199.069 176.711 194.246 176.711 Z" fill="#1a4f7f" fill-opacity="1" stroke="none"/>
  <path id="Traçado-5" d="M227.832 55.803 L198.38 55.803 C193.557 55.803 189.596 51.842 189.596 47.019 L189.596 21.012 C189.596 16.19 193.557 12.229 198.38 12.229 L227.832 12.229 C232.654 12.229 236.615 16.19 236.615 21.012 L236.615 47.019 C236.615 51.842 232.826 55.803 227.832 55.803 Z" fill="#2fa8b0" fill-opacity="1" stroke="none"/>
  <path id="Traçado-6" d="M157.044 127.28 L128.626 127.28 C123.803 127.28 119.842 123.318 119.842 118.496 L119.842 93.522 C119.842 88.7 123.803 84.738 128.626 84.738 L157.044 84.738 C161.866 84.738 165.828 88.7 165.828 93.522 L165.828 118.496 C165.828 123.318 161.866 127.28 157.044 127.28 Z" fill="#2fa8b0" fill-opacity="1" stroke="none"/>
  <path id="Traçado-7" d="M345.466 60.626 L325.315 60.626 C322.215 60.626 319.804 58.215 319.804 55.114 L319.804 37.202 C319.804 34.102 322.215 31.691 325.315 31.691 L345.466 31.691 C348.566 31.691 350.978 34.102 350.978 37.202 L350.978 55.114 C350.978 58.215 348.566 60.626 345.466 60.626 Z" fill="#2fa8b0" fill-opacity="1" stroke="none"/>
  <path id="Traçado-8" d="M168.928 70.271 L147.743 70.271 C142.921 70.271 138.96 66.309 138.96 61.487 L138.96 43.23 C138.96 38.408 142.921 34.447 147.743 34.447 L168.928 34.447 C173.751 34.447 177.712 38.408 177.712 43.23 L177.712 61.487 C177.712 66.309 173.751 70.271 168.928 70.271 Z" fill="#1a4f7f" fill-opacity="1" stroke="none"/>
  <path id="Traçado-9" d="M95.385 136.064 L76.611 136.064 C73.511 136.064 71.1 133.652 71.1 130.552 L71.1 114.018 C71.1 110.918 73.511 108.506 76.611 108.506 L95.385 108.506 C98.485 108.506 100.896 110.918 100.896 114.018 L100.896 130.552 C101.068 133.48 98.485 136.064 95.385 136.064 Z" fill="#1a4f7f" fill-opacity="1" stroke="none"/>
 </g>
 <g id="group-1">
  <g id="group-2">
   <path id="Traçado-10" d="M19.1 306.6 C15.2 304.4 12.2 301.1 10.1 296.9 8 292.7 7 287.5 7 281.6 L7 266.3 C7 260.3 8 255.1 10 250.8 12 246.5 14.9 243.3 18.7 241 22.5 238.8 27.1 237.7 32.5 237.7 37.7 237.7 42.3 238.7 46.3 240.8 50.3 242.9 53.6 246 56 250.3 L54.5 264.2 C54.5 261.2 53.8 258.5 52.5 256 51.2 253.6 49.2 251.6 46.6 250.2 44 248.8 41 248.1 37.4 248.1 31.8 248.1 27.4 249.7 24.3 252.9 21.2 256.1 19.7 260.6 19.7 266.4 L19.7 281.6 C19.7 287.3 21.2 291.7 24.3 294.9 27.4 298 31.7 299.6 37.4 299.6 40.9 299.6 44 298.9 46.6 297.4 49.2 295.9 51.1 294 52.5 291.5 53.9 289 54.5 286.3 54.5 283.2 L55.5 297.9 C53.8 301.8 51.1 304.8 47.3 306.9 43.5 309 38.8 310 33.3 310 27.8 309.9 23.1 308.8 19.1 306.6 Z M54.5 210.6 L67.2 210.6 67.2 308.9 54.5 308.9 Z" fill="#1a4f7f" fill-opacity="1" stroke="none"/>
   <path id="Traçado-11" d="M115 309.9 C115 309.9 112.5 308.7 107.6 306.2 102.6 303.7 98.9 300.2 96.3 295.5 93.7 290.8 92.4 285.1 92.4 278.5 L92.4 270.6 C92.4 263.7 93.7 257.7 96.2 252.8 98.7 247.9 102.3 244.1 107.1 241.6 111.9 239 117.6 237.7 124.3 237.7 130.6 237.7 136 239.1 140.5 241.8 145 244.5 148.4 248.5 150.8 253.7 153.2 258.9 154.3 265.1 154.3 272.4 L154.3 278.7 101.4 278.7 101.4 268.8 142.3 268.8 142.3 268.5 C142.1 262.1 140.4 257.2 137.3 253.7 134.2 250.2 129.8 248.5 124.3 248.5 117.9 248.5 113 250.4 109.6 254.1 106.1 257.8 104.4 263.1 104.4 269.9 L104.4 278.8 C104.4 285.2 106.2 290.2 109.9 293.7 113.6 297.2 118.8 298.9 125.6 298.9 128.9 298.9 132.1 298.3 135.3 297 138.5 295.8 141.4 294 143.8 291.8 L152.3 299.5 C148.6 302.8 144.4 305.4 139.8 307.2 135.1 309 130.4 309.9 125.6 309.9 118.5 309.9 115 309.9 115 309.9 Z" fill="#1a4f7f" fill-opacity="1" stroke="none"/>
   <path id="Traçado-12" d="M199.1 309.9 C199.1 309.9 196.7 308.7 191.8 306.4 186.9 304.1 183.2 300.7 180.7 296.1 178.2 291.6 177 286 177 279.4 L177 267.8 C177 261.3 178.3 255.8 180.8 251.3 183.3 246.8 187 243.4 191.9 241.1 196.8 238.8 202.7 237.7 209.8 237.7 213.8 237.7 217.6 238.1 221 239 224.5 239.9 227.5 241.1 230.2 242.8 232.9 244.4 235.2 246.5 237.2 249 L227.9 256.6 C225.6 254 222.9 252.1 219.8 250.8 216.7 249.5 213.5 248.8 210 248.8 203.3 248.8 198.3 250.4 194.9 253.6 191.5 256.8 189.8 261.6 189.8 267.8 L189.8 279.4 C189.8 285.8 191.5 290.6 194.9 293.9 198.3 297.2 203.4 298.8 210 298.8 213.6 298.8 217 298.1 220.2 296.8 223.3 295.5 226.1 293.5 228.5 291 L237.3 298.9 C235.4 301.3 233 303.4 230.3 305 227.6 306.6 224.5 307.9 221.1 308.7 217.7 309.5 213.9 310 209.9 310 202.7 309.9 199.1 309.9 199.1 309.9 Z" fill="#1a4f7f" fill-opacity="1" stroke="none"/>
   <path id="Traçado-13" d="M270.4 306.3 C265.7 303.9 262.2 300.4 259.7 295.9 257.2 291.3 256 285.8 256 279.4 L256 268 C256 261.6 257.2 256.2 259.7 251.7 262.2 247.2 265.7 243.7 270.4 241.4 275.1 239 280.7 237.9 287.3 237.9 293.9 237.9 299.5 239.1 304.2 241.4 308.9 243.8 312.4 247.2 314.9 251.7 317.4 256.2 318.6 261.7 318.6 268 L318.6 279.6 C318.6 286 317.4 291.5 314.9 296 312.4 300.5 308.9 304 304.2 306.4 299.5 308.8 293.9 310 287.3 310 280.7 309.9 275.1 308.7 270.4 306.3 Z M301 293.7 C304.2 290.3 305.9 285.6 305.9 279.5 L305.9 267.9 C305.9 261.8 304.3 257.1 301 253.8 297.8 250.5 293.2 248.8 287.2 248.8 281.3 248.8 276.8 250.5 273.6 253.8 270.4 257.1 268.8 261.8 268.8 267.9 L268.8 279.5 C268.8 285.6 270.4 290.4 273.6 293.7 276.8 297.1 281.4 298.7 287.2 298.7 293.2 298.8 297.7 297.1 301 293.7 Z" fill="#1a4f7f" fill-opacity="1" stroke="none"/>
   <path id="Traçado-14" d="M344.3 238.7 L357 238.7 357 308.9 344.3 308.9 Z M390.6 266.3 C390.6 260.7 389.2 256.4 386.3 253.3 383.4 250.2 379.3 248.7 373.9 248.7 368.5 248.7 364.4 250.1 361.5 252.8 358.6 255.5 357.1 259.4 357.1 264.4 L355.6 250.9 C358 246.4 361.2 243.1 365.1 240.9 369 238.7 373.5 237.6 378.5 237.6 383.8 237.6 388.3 238.7 392 240.9 395.7 243.1 398.6 246.4 400.5 250.7 402.4 255 403.4 260.1 403.4 266.2 L403.4 308.8 390.7 308.8 390.7 266.3 Z M437 266.3 C437 260.7 435.5 256.4 432.5 253.3 429.5 250.2 425.3 248.7 419.9 248.7 414.6 248.7 410.5 250.2 407.6 253.2 404.7 256.2 403.3 260.4 403.3 265.8 L399.6 254 C402 248.8 405.2 244.8 409.4 241.9 413.5 239.1 418.3 237.7 423.7 237.7 429.1 237.7 433.8 238.8 437.7 241 441.6 243.2 444.6 246.5 446.6 250.8 448.6 255.1 449.7 260.2 449.7 266.3 L449.7 308.9 437 308.9 Z" fill="#1a4f7f" fill-opacity="1" stroke="none"/>
  </g>
 </g>
 <g id="group-3">
  <path id="Traçado-15" d="M23 379.3 L19.2 379.3 19.2 375.2 19.1 375.2 C17.3 378.3 14.6 379.8 10.8 379.8 7.8 379.8 5.4 378.7 3.6 376.6 1.8 374.5 0.9 371.5 0.9 367.8 0.9 363.8 1.9 360.7 3.9 358.3 5.9 355.9 8.6 354.7 11.9 354.7 15.2 354.7 17.6 356 19.1 358.6 L19.2 358.6 19.2 343.7 23 343.7 Z M19.1 368.4 L19.1 364.9 C19.1 363 18.5 361.3 17.2 360 15.9 358.7 14.3 358 12.3 358 10 358 8.1 358.9 6.8 360.6 5.5 362.3 4.8 364.7 4.8 367.7 4.8 370.5 5.4 372.6 6.7 374.3 8 376 9.7 376.7 11.9 376.7 14 376.7 15.8 375.9 17.1 374.4 18.4 372.9 19.1 370.8 19.1 368.4 Z" fill="#2fa8b0" fill-opacity="1" stroke="none"/>
  <path id="Traçado-16" d="M64.5 368.2 L47.6 368.2 C47.7 370.9 48.4 372.9 49.8 374.4 51.2 375.9 53.1 376.6 55.5 376.6 58.2 376.6 60.7 375.7 63 373.9 L63 377.5 C60.9 379 58.1 379.8 54.6 379.8 51.2 379.8 48.5 378.7 46.6 376.5 44.7 374.3 43.7 371.3 43.7 367.3 43.7 363.6 44.8 360.5 46.9 358.2 49 355.9 51.6 354.7 54.8 354.7 58 354.7 60.4 355.7 62.1 357.7 63.8 359.7 64.7 362.6 64.7 366.2 L64.7 368.2 Z M60.5 365 C60.5 362.8 59.9 361.1 58.9 359.8 57.9 358.5 56.4 357.9 54.5 357.9 52.7 357.9 51.1 358.5 49.9 359.8 48.7 361.1 47.9 362.8 47.6 364.9 L60.5 364.9 Z" fill="#2fa8b0" fill-opacity="1" stroke="none"/>
  <path id="Traçado-17" d="M88.6 375.8 L88.5 390.3 84.7 390.3 84.7 355.3 88.5 355.3 88.5 359.5 88.6 359.5 C90.5 356.3 93.3 354.7 96.9 354.7 100 354.7 102.4 355.8 104.1 357.9 105.8 360 106.7 362.9 106.7 366.5 106.7 370.5 105.7 373.7 103.8 376.1 101.9 378.5 99.2 379.7 95.8 379.7 92.7 379.8 90.3 378.5 88.6 375.8 Z M88.5 366.1 L88.5 369.5 C88.5 371.5 89.1 373.2 90.4 374.6 91.7 376 93.3 376.7 95.3 376.7 97.6 376.7 99.5 375.8 100.8 374 102.1 372.2 102.8 369.7 102.8 366.6 102.8 363.9 102.2 361.8 100.9 360.3 99.6 358.8 98 358 95.9 358 93.7 358 91.9 358.8 90.5 360.3 89.1 361.8 88.5 363.8 88.5 366.1 Z" fill="#2fa8b0" fill-opacity="1" stroke="none"/>
  <path id="Traçado-18" d="M144.5 379.3 L140.7 379.3 140.7 375.5 140.6 375.5 C138.9 378.4 136.5 379.8 133.2 379.8 130.8 379.8 128.9 379.2 127.6 377.9 126.3 376.6 125.6 375 125.6 372.9 125.6 368.4 128.2 365.8 133.5 365.1 L140.7 364.1 C140.7 360 139.1 358 135.8 358 132.9 358 130.3 359 128 361 L128 357 C130.4 355.5 133.1 354.7 136.2 354.7 141.8 354.7 144.7 357.7 144.7 363.7 L144.7 379.3 Z M140.6 367.1 L134.8 367.9 C133 368.2 131.7 368.6 130.8 369.2 129.9 369.8 129.4 371 129.4 372.6 129.4 373.8 129.8 374.7 130.7 375.5 131.6 376.3 132.6 376.6 134 376.6 135.9 376.6 137.5 375.9 138.7 374.6 139.9 373.3 140.6 371.6 140.6 369.5 Z" fill="#2fa8b0" fill-opacity="1" stroke="none"/>
  <path id="Traçado-19" d="M178.6 359.2 C177.9 358.7 177 358.4 175.7 358.4 174.1 358.4 172.7 359.2 171.6 360.7 170.5 362.2 169.9 364.4 169.9 367 L169.9 379.2 166.1 379.2 166.1 355.2 169.9 355.2 169.9 360.1 170 360.1 C170.5 358.4 171.4 357.1 172.5 356.2 173.6 355.3 174.9 354.8 176.3 354.8 177.3 354.8 178.1 354.9 178.6 355.1 Z" fill="#2fa8b0" fill-opacity="1" stroke="none"/>
  <path id="Traçado-20" d="M208.3 379 C207.4 379.5 206.2 379.8 204.7 379.8 200.5 379.8 198.4 377.5 198.4 372.8 L198.4 358.6 194.3 358.6 194.3 355.3 198.4 355.3 198.4 349.4 202.2 348.2 202.2 355.3 208.2 355.3 208.2 358.6 202.2 358.6 202.2 372.1 C202.2 373.7 202.5 374.9 203 375.5 203.5 376.1 204.5 376.5 205.7 376.5 206.7 376.5 207.5 376.2 208.2 375.7 L208.2 379 Z" fill="#2fa8b0" fill-opacity="1" stroke="none"/>
  <path id="Traçado-21" d="M245 379.3 L241.2 379.3 241.2 375.5 241.1 375.5 C239.4 378.4 237 379.8 233.7 379.8 231.3 379.8 229.4 379.2 228.1 377.9 226.8 376.6 226.1 375 226.1 372.9 226.1 368.4 228.7 365.8 234 365.1 L241.2 364.1 C241.2 360 239.6 358 236.3 358 233.4 358 230.8 359 228.5 361 L228.5 357 C230.9 355.5 233.6 354.7 236.7 354.7 242.3 354.7 245.2 357.7 245.2 363.7 L245.2 379.3 Z M241.2 367.1 L235.4 367.9 C233.6 368.2 232.3 368.6 231.4 369.2 230.5 369.8 230 371 230 372.6 230 373.8 230.4 374.7 231.3 375.5 232.2 376.3 233.2 376.6 234.6 376.6 236.5 376.6 238.1 375.9 239.3 374.6 240.5 373.3 241.2 371.6 241.2 369.5 Z" fill="#2fa8b0" fill-opacity="1" stroke="none"/>
  <path id="Traçado-22" d="M300.8 379.3 L297 379.3 297 365.5 C297 362.8 296.6 360.9 295.8 359.7 295 358.5 293.6 357.9 291.7 357.9 290.1 357.9 288.7 358.7 287.5 360.2 286.3 361.7 285.8 363.5 285.8 365.6 L285.8 379.3 282 379.3 282 365 C282 360.3 280.2 357.9 276.5 357.9 274.8 357.9 273.4 358.6 272.3 360 271.2 361.4 270.7 363.3 270.7 365.5 L270.7 379.2 266.9 379.2 266.9 355.2 270.7 355.2 270.7 359 270.8 359 C272.5 356.1 275 354.6 278.3 354.6 279.9 354.6 281.4 355.1 282.6 356 283.8 356.9 284.7 358.1 285.1 359.6 286.9 356.3 289.5 354.6 293.1 354.6 298.4 354.6 301 357.9 301 364.4 L301 379.3 Z" fill="#2fa8b0" fill-opacity="1" stroke="none"/>
  <path id="Traçado-23" d="M341.7 368.2 L324.8 368.2 C324.9 370.9 325.6 372.9 327 374.4 328.4 375.9 330.3 376.6 332.7 376.6 335.4 376.6 337.9 375.7 340.2 373.9 L340.2 377.5 C338.1 379 335.3 379.8 331.8 379.8 328.4 379.8 325.7 378.7 323.8 376.5 321.9 374.3 320.9 371.3 320.9 367.3 320.9 363.6 322 360.5 324.1 358.2 326.2 355.9 328.8 354.7 332 354.7 335.2 354.7 337.6 355.7 339.3 357.7 341 359.7 341.9 362.6 341.9 366.2 L341.9 368.2 Z M337.8 365 C337.8 362.8 337.2 361.1 336.2 359.8 335.1 358.6 333.7 357.9 331.8 357.9 330 357.9 328.4 358.5 327.2 359.8 326 361.1 325.2 362.8 324.9 364.9 L337.8 364.9 Z" fill="#2fa8b0" fill-opacity="1" stroke="none"/>
  <path id="Traçado-24" d="M381.9 379.3 L378 379.3 378 365.6 C378 360.5 376.1 358 372.4 358 370.5 358 368.9 358.7 367.6 360.2 366.3 361.7 365.7 363.5 365.7 365.7 L365.7 379.4 361.9 379.4 361.9 355.4 365.7 355.4 365.7 359.4 365.8 359.4 C367.6 356.4 370.2 354.9 373.7 354.9 376.3 354.9 378.3 355.7 379.7 357.4 381.1 359.1 381.8 361.5 381.8 364.7 L381.8 379.3 Z" fill="#2fa8b0" fill-opacity="1" stroke="none"/>
  <path id="Traçado-25" d="M414.6 379 C413.7 379.5 412.5 379.8 411 379.8 406.8 379.8 404.7 377.5 404.7 372.8 L404.7 358.6 400.6 358.6 400.6 355.3 404.7 355.3 404.7 349.4 408.5 348.2 408.5 355.3 414.5 355.3 414.5 358.6 408.5 358.6 408.5 372.1 C408.5 373.7 408.8 374.9 409.3 375.5 409.8 376.1 410.8 376.5 412 376.5 413 376.5 413.8 376.2 414.5 375.7 L414.5 379 Z" fill="#2fa8b0" fill-opacity="1" stroke="none"/>
  <path id="Traçado-26" d="M444.2 379.8 C440.7 379.8 437.8 378.7 435.7 376.4 433.6 374.1 432.5 371.2 432.5 367.5 432.5 363.5 433.6 360.3 435.8 358.1 438 355.9 441 354.7 444.7 354.7 448.3 354.7 451.1 355.8 453.1 358 455.1 360.2 456.1 363.3 456.1 367.2 456.1 371 455 374.1 452.9 376.4 450.8 378.7 447.8 379.8 444.2 379.8 Z M444.5 357.9 C442 357.9 440.1 358.7 438.6 360.4 437.1 362.1 436.4 364.4 436.4 367.3 436.4 370.1 437.1 372.4 438.6 374 440.1 375.6 442 376.5 444.4 376.5 446.9 376.5 448.8 375.7 450.1 374.1 451.4 372.5 452.1 370.2 452.1 367.2 452.1 364.2 451.4 361.9 450.1 360.3 448.8 358.7 447 357.9 444.5 357.9 Z" fill="#2fa8b0" fill-opacity="1" stroke="none"/>
  <path id="Traçado-27" d="M23 428.3 L19.2 428.3 19.2 424.2 19.1 424.2 C17.3 427.3 14.6 428.8 10.8 428.8 7.8 428.8 5.4 427.7 3.6 425.6 1.8 423.5 0.9 420.5 0.9 416.8 0.9 412.8 1.9 409.7 3.9 407.3 5.9 404.9 8.6 403.7 11.9 403.7 15.2 403.7 17.6 405 19.1 407.6 L19.2 407.6 19.2 392.7 23 392.7 Z M19.1 417.4 L19.1 413.9 C19.1 412 18.5 410.3 17.2 409 15.9 407.7 14.3 407 12.3 407 10 407 8.1 407.9 6.8 409.6 5.5 411.3 4.8 413.7 4.8 416.7 4.8 419.5 5.4 421.6 6.7 423.3 8 425 9.7 425.7 11.9 425.7 14 425.7 15.8 424.9 17.1 423.4 18.4 421.9 19.1 419.8 19.1 417.4 Z" fill="#2fa8b0" fill-opacity="1" stroke="none"/>
  <path id="Traçado-28" d="M60.8 417.2 L43.9 417.2 C44 419.9 44.7 421.9 46.1 423.4 47.5 424.9 49.4 425.6 51.8 425.6 54.5 425.6 57 424.7 59.3 422.9 L59.3 426.5 C57.2 428 54.4 428.8 50.9 428.8 47.5 428.8 44.8 427.7 42.9 425.5 41 423.3 40 420.3 40 416.3 40 412.6 41.1 409.5 43.2 407.2 45.3 404.9 47.9 403.7 51.1 403.7 54.3 403.7 56.7 404.7 58.4 406.7 60.1 408.7 61 411.6 61 415.2 L61 417.2 Z M56.9 414 C56.9 411.8 56.3 410.1 55.3 408.8 54.3 407.5 52.8 406.9 50.9 406.9 49.1 406.9 47.5 407.5 46.3 408.8 45.1 410.1 44.3 411.8 44 413.9 L56.9 413.9 Z" fill="#2fa8b0" fill-opacity="1" stroke="none"/>
  <path id="Traçado-29" d="M110.7 427.2 C108.9 428.3 106.7 428.9 104.1 428.9 100.7 428.9 97.9 427.8 95.8 425.6 93.7 423.4 92.6 420.5 92.6 416.9 92.6 412.9 93.7 409.8 96 407.4 98.3 405 101.3 403.8 105.1 403.8 107.2 403.8 109.1 404.2 110.7 405 L110.7 408.9 C108.9 407.6 107 407 105 407 102.5 407 100.5 407.9 99 409.6 97.5 411.3 96.6 413.7 96.6 416.5 96.6 419.3 97.3 421.5 98.8 423.2 100.3 424.9 102.3 425.6 104.7 425.6 106.8 425.6 108.8 424.9 110.6 423.5 L110.6 427.2 Z" fill="#2fa8b0" fill-opacity="1" stroke="none"/>
  <path id="Traçado-30" d="M138.3 428.8 C134.8 428.8 131.9 427.7 129.8 425.4 127.7 423.1 126.6 420.2 126.6 416.5 126.6 412.5 127.7 409.3 129.9 407.1 132.1 404.9 135.1 403.7 138.8 403.7 142.4 403.7 145.2 404.8 147.2 407 149.2 409.2 150.2 412.3 150.2 416.2 150.2 420 149.1 423.1 147 425.4 144.9 427.7 142 428.8 138.3 428.8 Z M138.6 406.9 C136.1 406.9 134.2 407.7 132.7 409.4 131.2 411.1 130.5 413.4 130.5 416.3 130.5 419.1 131.2 421.4 132.7 423 134.2 424.6 136.1 425.5 138.5 425.5 141 425.5 142.9 424.7 144.2 423.1 145.5 421.5 146.2 419.2 146.2 416.2 146.2 413.2 145.5 410.9 144.2 409.3 142.9 407.7 141.1 406.9 138.6 406.9 Z" fill="#2fa8b0" fill-opacity="1" stroke="none"/>
  <path id="Traçado-31" d="M202.3 428.3 L198.5 428.3 198.5 414.5 C198.5 411.8 198.1 409.9 197.3 408.7 196.5 407.5 195.1 406.9 193.2 406.9 191.6 406.9 190.2 407.7 189 409.2 187.8 410.7 187.3 412.5 187.3 414.6 L187.3 428.3 183.5 428.3 183.5 414 C183.5 409.3 181.7 406.9 178 406.9 176.3 406.9 174.9 407.6 173.8 409 172.7 410.4 172.2 412.3 172.2 414.5 L172.2 428.2 168.4 428.2 168.4 404.2 172.2 404.2 172.2 408 172.3 408 C174 405.1 176.5 403.6 179.8 403.6 181.4 403.6 182.9 404.1 184.1 405 185.3 405.9 186.2 407.1 186.6 408.6 188.4 405.3 191 403.6 194.6 403.6 199.9 403.6 202.5 406.9 202.5 413.4 L202.5 428.3 Z" fill="#2fa8b0" fill-opacity="1" stroke="none"/>
  <path id="Traçado-32" d="M225.2 424.8 L225.1 439.3 221.3 439.3 221.3 404.3 225.1 404.3 225.1 408.5 225.2 408.5 C227.1 405.3 229.9 403.7 233.5 403.7 236.6 403.7 239 404.8 240.7 406.9 242.4 409 243.3 411.9 243.3 415.5 243.3 419.5 242.3 422.7 240.4 425.1 238.5 427.5 235.8 428.7 232.4 428.7 229.3 428.8 226.9 427.5 225.2 424.8 Z M225.1 415.1 L225.1 418.5 C225.1 420.5 225.7 422.2 227 423.6 228.3 425 229.9 425.7 231.9 425.7 234.2 425.7 236.1 424.8 237.4 423 238.7 421.2 239.4 418.7 239.4 415.6 239.4 412.9 238.8 410.8 237.5 409.3 236.2 407.8 234.6 407 232.5 407 230.3 407 228.5 407.8 227.1 409.3 225.7 410.8 225.1 412.8 225.1 415.1 Z" fill="#2fa8b0" fill-opacity="1" stroke="none"/>
  <path id="Traçado-33" d="M280.7 428.3 L276.9 428.3 276.9 424.5 276.8 424.5 C275.2 427.4 272.7 428.9 269.4 428.9 263.7 428.9 260.8 425.5 260.8 418.7 L260.8 404.4 264.6 404.4 264.6 418 C264.6 423.1 266.5 425.6 270.4 425.6 272.3 425.6 273.8 424.9 275 423.5 276.2 422.1 276.8 420.3 276.8 418.1 L276.8 404.3 280.6 404.3 280.6 428.3 Z" fill="#2fa8b0" fill-opacity="1" stroke="none"/>
  <path id="Traçado-34" d="M311.3 428 C310.4 428.5 309.2 428.8 307.7 428.8 303.5 428.8 301.4 426.5 301.4 421.8 L301.4 407.6 297.3 407.6 297.3 404.3 301.4 404.3 301.4 398.4 305.2 397.2 305.2 404.3 311.2 404.3 311.2 407.6 305.2 407.6 305.2 421.1 C305.2 422.7 305.5 423.9 306 424.5 306.5 425.1 307.5 425.5 308.7 425.5 309.7 425.5 310.5 425.2 311.2 424.7 L311.2 428 Z" fill="#2fa8b0" fill-opacity="1" stroke="none"/>
  <path id="Traçado-35" d="M345.4 428.3 L341.6 428.3 341.6 424.5 341.5 424.5 C339.8 427.4 337.4 428.8 334.1 428.8 331.7 428.8 329.8 428.2 328.5 426.9 327.2 425.6 326.5 424 326.5 421.9 326.5 417.4 329.1 414.8 334.4 414.1 L341.6 413.1 C341.6 409 340 407 336.7 407 333.8 407 331.2 408 328.9 410 L328.9 406 C331.3 404.5 334 403.7 337.1 403.7 342.7 403.7 345.6 406.7 345.6 412.7 L345.6 428.3 Z M341.6 416.1 L335.8 416.9 C334 417.2 332.7 417.6 331.8 418.2 330.9 418.8 330.4 420 330.4 421.6 330.4 422.8 330.8 423.7 331.7 424.5 332.6 425.3 333.6 425.6 335 425.6 336.9 425.6 338.5 424.9 339.7 423.6 340.9 422.3 341.6 420.6 341.6 418.5 Z" fill="#2fa8b0" fill-opacity="1" stroke="none"/>
  <path id="Traçado-36" d="M380.8 427.2 C379 428.3 376.8 428.9 374.2 428.9 370.8 428.9 368 427.8 365.9 425.6 363.8 423.4 362.7 420.5 362.7 416.9 362.7 412.9 363.8 409.8 366.1 407.4 368.4 405 371.4 403.8 375.2 403.8 377.3 403.8 379.2 404.2 380.8 405 L380.8 408.9 C379 407.6 377.1 407 375.1 407 372.6 407 370.6 407.9 369.1 409.6 367.6 411.3 366.7 413.7 366.7 416.5 366.7 419.3 367.4 421.5 368.9 423.2 370.4 424.9 372.4 425.6 374.8 425.6 376.9 425.6 378.9 424.9 380.7 423.5 L380.7 427.2 Z M378.7 434.3 C378.7 437.1 376.6 438.4 372.3 438.4 371.7 438.4 371.2 438.4 370.8 438.4 L370.8 436.3 C371.5 436.4 372 436.4 372.4 436.4 374.6 436.4 375.7 435.7 375.7 434.3 375.7 433.1 374.7 432.5 372.7 432.5 372.5 432.5 372.2 432.5 371.7 432.6 L371.7 428.3 374.2 428.3 374.2 430.7 C375.6 430.7 376.7 431 377.5 431.6 378.3 432.2 378.7 433.2 378.7 434.3 Z" fill="#2fa8b0" fill-opacity="1" stroke="none"/>
  <path id="Traçado-37" d="M415.5 428.3 L411.7 428.3 411.7 424.5 411.6 424.5 C409.9 427.4 407.5 428.8 404.2 428.8 401.8 428.8 399.9 428.2 398.6 426.9 397.3 425.6 396.6 424 396.6 421.9 396.6 417.4 399.2 414.8 404.5 414.1 L411.7 413.1 C411.7 409 410.1 407 406.8 407 403.9 407 401.3 408 399 410 L399 406 C401.4 404.5 404.1 403.7 407.2 403.7 412.8 403.7 415.7 406.7 415.7 412.7 L415.7 428.3 Z M414.2 394.1 C414.2 395.7 413.8 397.1 413.1 398.1 412.4 399.1 411.3 399.7 410.1 399.7 409 399.7 407.7 399.3 406.3 398.5 405.1 397.8 404.2 397.5 403.5 397.5 402.1 397.5 401.4 398.4 401.4 400.1 L399.2 400.1 C399.2 398.4 399.6 397.1 400.3 396.1 401 395.1 402.1 394.6 403.4 394.6 404.4 394.6 405.6 395 406.9 395.8 408.1 396.5 409.1 396.8 409.9 396.8 411.2 396.8 411.9 395.9 411.9 394.1 Z M411.7 416.1 L405.9 416.9 C404.1 417.2 402.8 417.6 401.9 418.2 401 418.8 400.5 420 400.5 421.6 400.5 422.8 400.9 423.7 401.8 424.5 402.7 425.3 403.7 425.6 405.1 425.6 407 425.6 408.6 424.9 409.8 423.6 411 422.3 411.7 420.6 411.7 418.5 Z" fill="#2fa8b0" fill-opacity="1" stroke="none"/>
  <path id="Traçado-38" d="M444.5 428.8 C441 428.8 438.1 427.7 436 425.4 433.9 423.1 432.8 420.2 432.8 416.5 432.8 412.5 433.9 409.3 436.1 407.1 438.3 404.9 441.3 403.7 445 403.7 448.6 403.7 451.4 404.8 453.4 407 455.4 409.2 456.4 412.3 456.4 416.2 456.4 420 455.3 423.1 453.2 425.4 451.1 427.7 448.2 428.8 444.5 428.8 Z M444.8 406.9 C442.3 406.9 440.4 407.7 438.9 409.4 437.4 411.1 436.7 413.4 436.7 416.3 436.7 419.1 437.4 421.4 438.9 423 440.4 424.6 442.3 425.5 444.7 425.5 447.2 425.5 449.1 424.7 450.4 423.1 451.7 421.5 452.4 419.2 452.4 416.2 452.4 413.2 451.7 410.9 450.4 409.3 449.1 407.7 447.3 406.9 444.8 406.9 Z" fill="#2fa8b0" fill-opacity="1" stroke="none"/>
 </g>
</svg>
